<svg xmlns="http://www.w3.org/2000/svg" width="1000" height="1000" id="empty" style=""><g id="icon"><path fill="#fb2964" d="M290.7943468996026 487.00252584203423C290.7943468996026 498.1586777886142 281.7504988461826 507.2025258420342 270.59434689960256 507.2025258420342C259.4381949530226 507.2025258420342 250.3943468996026 498.1586777886142 250.3943468996026 487.00252584203423C250.3943468996026 475.84637389545424 259.4381949530226 466.80252584203424 270.59434689960256 466.80252584203424C281.7504988461826 466.80252584203424 290.7943468996026 475.84637389545424 290.7943468996026 487.00252584203423Z " transform="matrix(1.7350594164961053,0,0,1.7350592852517315,-20.990056486886274,-56.05238120643887)"></path><path fill="#fb2964" d="M411.39434689960257 487.00252584203423C411.39434689960257 498.1586777886142 402.3504988461826 507.2025258420342 391.1943468996026 507.2025258420342C380.0381949530226 507.2025258420342 370.9943468996026 498.1586777886142 370.9943468996026 487.00252584203423C370.9943468996026 475.84637389545424 380.0381949530226 466.80252584203424 391.1943468996026 466.80252584203424C402.3504988461826 466.80252584203424 411.39434689960257 475.84637389545424 411.39434689960257 487.00252584203423Z " transform="matrix(1.7350594164961053,0,0,1.7350592852517315,-20.990056486886274,-56.05238120643887)"></path><path fill="#fb2964" d="M490.39434689960257 290.40252584203427C490.1943468996026 290.2025258420342 489.7943468996026 290.2025258420342 489.5943468996026 290.50252584203423C477.2943468996026 305.30252584203424 463.5943468996026 318.50252584203423 448.5943468996026 329.50252584203423C433.5943468996026 340.50252584203423 417.2943468996026 349.4025258420342 400.2943468996026 355.80252584203424C366.2943468996026 368.9025258420342 329.2943468996026 372.4025258420342 294.09434689960256 365.9025258420342C258.8943468996026 359.4025258420342 225.4943468996026 343.30252584203424 198.2943468996026 319.30252584203424C184.69434689960258 307.30252584203424 172.59434689960258 293.30252584203424 162.2943468996026 277.90252584203427C157.19434689960258 270.2025258420342 152.4943468996026 262.00252584203423 148.2943468996026 253.60252584203423C144.09434689960258 245.10252584203423 140.3943468996026 236.40252584203424 137.09434689960258 227.30252584203424C136.9943468996026 227.10252584203423 136.7943468996026 226.90252584203424 136.4943468996026 226.90252584203424C136.19434689960258 226.90252584203424 135.8943468996026 227.20252584203422 135.9943468996026 227.50252584203423C138.4943468996026 266.40252584203427 155.9943468996026 304.90252584203427 183.69434689960258 334.30252584203424C187.7943468996026 338.7025258420342 192.09434689960258 342.80252584203424 196.59434689960258 346.80252584203424L219.2943468996026 452.50252584203423C220.3943468996026 457.80252584203424 225.09434689960258 461.60252584203425 230.4943468996026 461.60252584203425L435.0943468996026 461.60252584203425C441.4943468996026 461.60252584203425 446.5943468996026 456.50252584203423 446.5943468996026 450.10252584203425C446.5943468996026 443.7025258420342 441.4943468996026 438.60252584203425 435.0943468996026 438.60252584203425L239.8943468996026 438.60252584203425L234.9943468996026 416.00252584203423L422.6943468996026 385.30252584203424C426.7943468996026 384.60252584203425 429.9943468996026 381.60252584203425 430.89434689960257 377.50252584203423L435.0943468996026 358.00252584203423C459.0943468996026 340.50252584203423 478.6943468996026 317.30252584203424 490.5943468996026 291.1025258420342C490.5943468996026 290.90252584203427 490.5943468996026 290.6025258420342 490.39434689960257 290.40252584203427Z " transform="matrix(1.7350594164961053,0,0,1.7350592852517315,-20.990056486886274,-56.05238120643887)"></path><path fill="#fb2964" d="M411.39434689960257 251.40252584203424L199.39434689960262 251.40252584203424L177.7943468996026 151.50252584203423C176.7943468996026 146.80252584203424 172.9943468996026 143.30252584203424 168.2943468996026 142.60252584203423L111.7943468996026 133.90252584203424C105.4943468996026 132.90252584203424 99.6943468996026 137.20252584203422 98.6943468996026 143.50252584203423C97.6943468996026 149.80252584203424 101.9943468996026 155.60252584203423 108.2943468996026 156.60252584203423L156.9943468996026 164.10252584203423L182.4943468996026 282.2025258420342C189.9943468996026 291.90252584203427 198.39434689960262 300.90252584203427 207.39434689960262 308.80252584203424C232.69434689960258 331.10252584203425 263.4943468996026 346.10252584203425 296.5943468996026 352.2025258420342C329.39434689960257 358.30252584203424 363.4943468996026 355.00252584203423 395.1943468996026 342.80252584203424C411.0943468996026 336.7025258420342 426.1943468996026 328.50252584203423 440.2943468996026 318.2025258420342C441.5943468996026 317.2025258420342 442.89434689960257 316.2025258420342 444.2943468996026 315.2025258420342L451.5943468996026 281.30252584203424L411.39434689960257 281.30252584203424L411.39434689960257 251.40252584203424Z " transform="matrix(1.7350594164961053,0,0,1.7350592852517315,-20.990056486886274,-56.05238120643887)"></path><path fill="#fb2964" d="M421.89434689960257 237.30252584203424L455.39434689960257 237.30252584203424L455.39434689960257 270.80252584203424L421.89434689960257 270.80252584203424Z " transform="matrix(1.7350594164961053,0,0,1.7350592852517315,-20.990056486886274,-56.05238120643887)"></path><path fill="#fb2964" d="M475.39434689960257 218.30252584203424L501.9943468996026 218.30252584203424L501.9943468996026 244.90252584203424L475.39434689960257 244.90252584203424Z " transform="matrix(1.7350594164961053,0,0,1.7350592852517315,-20.990056486886274,-56.05238120643887)"></path><path fill="#fb2964" d="M437.39434689960257 188.80252584203424L458.9943468996026 188.80252584203424L458.9943468996026 210.40252584203424L437.39434689960257 210.40252584203424Z " transform="matrix(1.7350594164961053,0,0,1.7350592852517315,-20.990056486886274,-56.05238120643887)"></path><path fill="#fb2964" d="M480.0943468996026 182.70252584203422L492.1943468996026 182.70252584203422L492.1943468996026 194.80252584203424L480.0943468996026 194.80252584203424Z " transform="matrix(1.7350594164961053,0,0,1.7350592852517315,-20.990056486886274,-56.05238120643887)"></path><g transform="matrix(3.4701188329922106,0,0,3.470118570503463,-20.990056486886274,-56.05238120643887)"></g></g></svg>